<svg width="242" height="325" viewBox="0 0 242 325" fill="none" xmlns="http://www.w3.org/2000/svg">
<path d="M10 157V10H104.667C113.845 10 122.98 11.2635 131.813 13.755L138 15.5L143.6 17.46C153.125 20.7939 161.989 25.78 169.785 32.1895C176.882 38.0254 182.998 44.962 187.898 52.7351L190.823 57.3746C193.603 61.7847 196.032 66.4071 198.085 71.1989C201.019 78.0445 203.173 85.1988 204.505 92.5265L204.683 93.5055C206.549 103.772 206.798 114.267 205.419 124.61L205.279 125.659C204.761 129.54 203.79 133.346 202.385 137L199.5 144.5L187.5 167.5L177.101 178.66C170.409 185.841 162.621 191.916 154.026 196.658C143.444 202.496 131.823 206.213 119.817 207.598L112 208.5H49.5V277L130.841 276.081C135.594 276.027 140.32 275.362 144.903 274.102C153.507 271.736 161.412 267.326 167.945 261.249L172.697 256.829C177.2 252.639 180.966 247.722 183.837 242.283L184.017 241.942C187.306 235.71 189.316 228.884 189.931 221.864C190.473 215.67 189.918 209.429 188.293 203.427L188.213 203.133C187.739 201.382 187.091 199.683 186.28 198.06L183 191.5L192.887 179.568C195.958 175.861 198.758 171.937 201.264 167.827L210 153.5L211.75 155.552C220.142 165.391 226.209 176.994 229.5 189.5L231.491 200.309C232.495 205.758 233 211.288 233 216.829C233 227.2 231.231 237.496 227.768 247.272L227.487 248.066C225.5 253.677 222.996 259.09 220.007 264.237L215.5 272L212.561 275.762C206.225 283.872 198.675 290.955 190.178 296.762L185.696 299.825C177.289 305.569 167.995 309.89 158.184 312.615C150.099 314.861 141.746 316 133.354 316H10V170.5H105L112.513 169.174C118.8 168.065 124.877 165.989 130.53 163.022L130.959 162.796C138.241 158.974 144.652 153.685 149.79 147.263L150.012 146.985C155.274 140.408 159.04 132.762 161.046 124.581L161.246 123.764C163.383 115.056 163.341 105.955 161.127 97.2657C159.069 89.1955 155.194 81.7028 149.796 75.3605L147.289 72.4149C141.17 65.2243 133.56 59.4506 124.987 55.4938C116.431 51.545 107.12 49.5 97.697 49.5H49.5V117H138L152.5 118.5L150.106 125.681C148.385 130.844 145.67 135.619 142.113 139.737C139.387 142.895 136.201 145.624 132.664 147.835L130.847 148.971C127.625 150.984 124.195 152.645 120.617 153.923C114.915 155.959 108.905 157 102.85 157H10Z" fill="#D9D9D9" stroke="black"/>
</svg>
